<?xml version="1.0" encoding="UTF-8"?>
<svg id="Layer_2" data-name="Layer 2" xmlns="http://www.w3.org/2000/svg" viewBox="0 0 480.45 416.2">
  <defs>
    <style>
      .cls-1 {
        fill: #fff;
      }
    </style>
  </defs>
  <g id="Capa_1" data-name="Capa 1">
    <g>
      <path class="cls-1" d="M211.02,416.2h262.82l6.6-10.91V80.94L397.05,0H0v351.97h133.11l77.91,64.23Z"/>
      <g>
        <path d="M335.7,380.55v7.61h-2.39v-19.03h7.23c4.3,0,6.73,2.15,6.73,5.71s-2.43,5.71-6.73,5.71h-4.84ZM335.7,371.39v6.91h4.79c2.81,0,4.3-1.14,4.3-3.45s-1.48-3.45-4.3-3.45h-4.79Z"/>
        <path d="M358.45,369.13c4.3,0,6.66,1.93,6.66,5.4s-2.57,5.42-6.65,5.42h-.15l6.7,8.21h-2.96l-6.54-8.21h-2.23v8.21h-2.39v-19.03h7.56ZM353.28,371.38v6.4h5.11c2.8,0,4.23-1.12,4.23-3.25s-1.47-3.15-4.23-3.15h-5.11Z"/>
        <path d="M371.65,388.17h-2.39v-19.03h2.39v19.03Z"/>
        <path d="M397.02,388.17h-2.39v-16.38l-6.38,14.33h-2.53l-6.38-14.22v16.27h-2.39v-19.05h3.66l6.38,14.21,6.38-14.21h3.66v19.05Z"/>
        <path d="M418.7,388.17h-2.57l-2.09-5.19h-9.23l-2.08,5.19h-2.49l7.74-19.03h2.98l7.75,19.03ZM405.72,380.7h7.41l-3.7-9.2-3.71,9.2Z"/>
        <path d="M432.88,371.4h-6.49v16.76h-2.39v-16.76h-6.5v-2.27h15.38v2.27Z"/>
        <path d="M449.59,388.17h-13.51v-19.03h13.38v2.24h-10.99v6.08h10.63v2.26h-10.63v6.21h11.12v2.24Z"/>
      </g>
      <g>
        <path d="M38.06,40.8h-2.96l-5.1-15.89-5.1,15.89h-2.95l-6.11-19.05h2.52l5.1,16.34,5.21-16.36h2.72l5.22,16.36,5.08-16.34h2.46l-6.09,19.05Z"/>
        <path d="M61.01,40.78h-13.51v-19.03h13.38v2.24h-10.98v6.08h10.63v2.26h-10.63v6.21h11.12v2.24Z"/>
        <path d="M89.66,40.78h-2.57l-2.09-5.19h-9.23l-2.08,5.19h-2.49l7.74-19.03h2.98l7.75,19.03ZM76.68,33.32h7.41l-3.7-9.2-3.71,9.2Z"/>
        <path d="M100.41,21.75c4.3,0,6.66,1.93,6.66,5.4s-2.57,5.42-6.65,5.42h-.15l6.7,8.21h-2.96l-6.54-8.21h-2.23v8.21h-2.39v-19.03h7.56ZM95.24,23.99v6.4h5.11c2.8,0,4.23-1.12,4.23-3.25s-1.47-3.15-4.23-3.15h-5.11Z"/>
        <path d="M124.74,40.78h-13.51v-19.03h13.38v2.24h-10.99v6.08h10.63v2.26h-10.63v6.21h11.12v2.24Z"/>
      </g>
    </g>
  </g>
</svg>