<?xml version="1.0" encoding="UTF-8"?>
<svg id="Layer_2" data-name="Layer 2" xmlns="http://www.w3.org/2000/svg" viewBox="0 0 721.01 231.22">
  <g id="Capa_1" data-name="Capa 1">
    <g>
      <g>
        <path d="M331.69,78.86h25.63c12.95,0,21.72,8.6,21.72,20.42s-8.78,20.42-21.72,20.42h-12.6v19.99h-13.03v-60.83ZM356.89,107.53c5.21,0,8.69-3.39,8.69-8.26s-3.48-8.26-8.69-8.26h-12.17v16.51h12.17Z"/>
        <path d="M390.76,78.86h26.94c13.03,0,21.29,8.26,21.29,20.42,0,6.95-2.52,11.47-5.21,14.16-1.48,1.56-3.22,2.78-5.21,3.65l12.6,22.59h-14.34l-10.86-19.99h-12.17v19.99h-13.03v-60.83ZM417.27,107.53c4.87,0,8.26-3.39,8.26-8.26s-3.39-8.26-8.26-8.26h-13.47v16.51h13.47Z"/>
        <path d="M453.54,78.86h13.03v60.83h-13.03v-60.83Z"/>
        <path d="M483.33,78.86h11.73l20.85,26.07,20.86-26.07h11.73v60.83h-13.03v-39.97l-19.55,24.33-19.55-24.33v39.97h-13.03v-60.83Z"/>
        <path d="M581.3,78.86h14.77l23.46,60.83h-13.9l-5.21-13.9h-23.46l-5.21,13.9h-13.9l23.46-60.83ZM596.08,114.05l-7.21-19.99h-.35l-7.21,19.99h14.77Z"/>
        <path d="M634.64,91.02h-17.38v-12.17h47.79v12.17h-17.38v48.66h-13.03v-48.66Z"/>
        <path d="M674.95,78.86h45.19v12.17h-32.15v11.73h25.2v11.73h-25.2v13.03h33.02v12.17h-46.06v-60.83Z"/>
      </g>
      <path d="M36.68,231.22H0V0h231.96l59.7,57.94v87.02l-19.01,31.4H119.39l-35.4-29.18h-47.31v84.03ZM132.56,139.68h119.41l3-4.96v-61.27l-37.89-36.78H36.68v73.82h60.48l35.4,29.18Z"/>
    </g>
  </g>
</svg>